<svg data-v-423bf9ae="" xmlns="http://www.w3.org/2000/svg" viewBox="0 0 201.89077035520498 60" class="font"><!----><!----><defs data-v-423bf9ae=""><linearGradient data-v-423bf9ae="" gradientTransform="rotate(25)" id="dcf78956-9ecc-4a73-a9a8-99ef09e61d22" x1="0%" y1="0%" x2="100%" y2="0%"><stop data-v-423bf9ae="" offset="0%" style="stop-color: rgb(62, 110, 129); stop-opacity: 1;"></stop><stop data-v-423bf9ae="" offset="100%" style="stop-color: rgb(69, 135, 161); stop-opacity: 1;"></stop></linearGradient></defs><g data-v-423bf9ae="" id="ef9b90ca-a044-4bde-899b-f58733f3070a" fill="url(#dcf78956-9ecc-4a73-a9a8-99ef09e61d22)" transform="matrix(4.201681031442939,0,0,4.201681031442939,-1.8067214626022547,-10.252102433980042)"><path d="M3.36 3.60L3.36 3.60Q3.11 3.60 2.93 3.68Q2.74 3.77 2.74 3.89L2.74 3.89Q2.58 4.48 2.58 7.40Q2.58 10.32 2.56 10.67L2.56 10.67Q2.83 11.09 3.39 11.09L3.39 11.09Q4.38 11.09 4.89 9.99Q5.39 8.89 5.39 7.23Q5.39 5.57 4.90 4.58Q4.41 3.60 3.36 3.60ZM0.69 12.82L0.69 12.82Q0.48 12.80 0.48 12.70L0.48 12.70L0.52 12.53Q0.87 11.77 0.87 7.08L0.87 7.08Q0.87 4.84 0.75 4.28Q0.63 3.72 0.56 3.57L0.56 3.57L0.49 3.43Q0.43 3.37 0.43 3.27Q0.43 3.16 0.60 3.09L0.60 3.09Q1.69 2.66 3.47 2.66L3.47 2.66Q7.21 2.66 7.21 7.42L7.21 7.42Q7.21 9.28 6.55 10.82L6.55 10.82Q6.29 11.41 5.94 11.84Q5.59 12.26 5.02 12.55Q4.45 12.84 3.77 12.84L3.77 12.84Q3.63 12.82 3.41 12.80Q3.19 12.77 2.77 12.59Q2.34 12.40 2.18 12.11L2.18 12.11Q1.67 12.82 0.69 12.82ZM12.45 8.47L12.45 8.47L12.42 10.26Q12.42 12.12 12.82 12.50L12.82 12.50Q12.88 12.56 12.88 12.63L12.88 12.63Q12.88 12.84 11.98 12.84Q11.07 12.84 11.02 12.31L11.02 12.31Q11.00 12.18 11.00 11.79L11.00 11.79L11.06 9.55Q11.06 9.45 10.95 9.45L10.95 9.45Q10.28 9.45 9.69 9.83Q9.10 10.21 9.10 10.79L9.10 10.79Q9.10 11.10 9.27 11.31Q9.44 11.52 9.68 11.52Q9.93 11.52 10.09 11.42Q10.25 11.33 10.28 11.31L10.28 11.31Q10.51 11.34 10.51 11.81Q10.51 12.28 10.08 12.56Q9.65 12.85 9.17 12.85Q8.69 12.85 8.35 12.68Q8.01 12.52 7.85 12.31Q7.70 12.10 7.60 11.83L7.60 11.83Q7.50 11.51 7.50 11.27L7.50 11.27Q7.50 10.29 8.12 9.70Q8.74 9.11 9.70 8.86L9.70 8.86Q10.98 8.61 11.03 8.40L11.03 8.40Q11.07 8.25 11.07 7.88L11.07 7.88Q11.07 7.14 10.32 7.14L10.32 7.14Q10.00 7.14 9.74 7.34Q9.49 7.55 9.49 7.85L9.49 7.85L9.58 8.19Q9.55 8.43 9.07 8.47L9.07 8.47L8.92 8.48Q8.50 8.48 8.25 8.27Q8.01 8.06 8.01 7.71L8.01 7.71Q8.01 7.49 8.16 7.22Q8.30 6.94 8.53 6.78Q8.75 6.61 9.22 6.47Q9.69 6.34 10.12 6.34Q10.56 6.34 10.79 6.37Q11.03 6.40 11.45 6.50Q11.86 6.61 12.13 6.90Q12.40 7.20 12.43 7.52Q12.45 7.85 12.45 8.47ZM14.74 5.18L14.74 5.18L14.41 5.17Q14.03 5.17 13.92 5.35L13.92 5.35Q13.89 5.39 13.85 5.39L13.85 5.39Q13.66 5.39 13.66 4.77Q13.66 4.14 13.85 3.98Q14.04 3.81 14.51 3.81Q14.98 3.81 15.15 3.97Q15.32 4.13 15.32 4.51Q15.32 4.89 15.19 5.03Q15.06 5.18 14.74 5.18ZM13.62 12.25L13.62 12.25L13.78 8.99Q13.78 7.83 13.51 7.41L13.51 7.41Q13.43 7.27 13.31 7.20L13.31 7.20Q13.23 7.17 13.23 7.08L13.23 7.08Q13.23 6.83 13.94 6.59Q14.66 6.36 14.99 6.36Q15.32 6.36 15.33 6.52L15.33 6.52Q15.33 6.80 15.25 8.11Q15.18 9.42 15.18 10.86Q15.18 12.31 15.34 12.66L15.34 12.66Q15.39 12.73 15.39 12.80L15.39 12.80Q15.39 12.98 14.85 12.98Q14.32 12.98 13.76 12.70L13.76 12.70Q13.62 12.63 13.62 12.25ZM18.13 4.66L18.13 4.66L18.05 9.80Q18.05 12.21 18.20 12.68L18.20 12.68Q18.24 12.77 18.24 12.85L18.24 12.85Q18.24 13.02 17.84 13.02Q17.43 13.02 16.93 12.82Q16.44 12.61 16.44 12.29L16.44 12.29Q16.72 10.33 16.72 7.06L16.72 7.06L16.66 4.91Q16.63 4.52 16.50 4.24Q16.37 3.96 16.24 3.88L16.24 3.88L16.13 3.81Q16.03 3.75 16.03 3.68L16.03 3.68Q16.03 3.49 16.64 3.20Q17.25 2.91 17.82 2.91L17.82 2.91Q18.05 2.91 18.07 3.07L18.07 3.07Q18.13 3.43 18.13 4.66ZM21.56 16.55L21.56 16.55Q21.56 16.72 21.39 16.72L21.39 16.72L21.38 16.72Q20.92 16.72 20.34 16.39Q19.75 16.07 19.75 15.65Q19.75 15.23 20.29 14.19Q20.82 13.15 20.82 12.80L20.82 12.80Q20.82 12.42 20.45 11.44L20.45 11.44Q19.99 10.16 19.72 9.37Q19.45 8.57 19.13 7.96Q18.82 7.35 18.68 7.24L18.68 7.24L18.54 7.14Q18.38 7.06 18.38 6.96L18.38 6.96Q18.38 6.76 18.99 6.56Q19.60 6.36 20.06 6.36L20.06 6.36Q20.27 6.36 20.41 6.69L20.41 6.69Q20.66 7.35 20.96 8.51L20.96 8.51Q21.67 10.89 21.85 10.89L21.85 10.89Q21.98 10.89 22.36 9.91Q22.75 8.93 22.75 8.33L22.75 8.33Q22.75 7.28 22.13 7.10L22.13 7.10Q21.99 7.07 21.99 6.96L21.99 6.96Q21.99 6.71 22.65 6.47Q23.31 6.24 23.84 6.24L23.84 6.24Q24.30 6.24 24.30 6.85L24.30 6.85Q24.30 7.31 24.11 7.92Q23.91 8.54 23.74 8.90Q23.58 9.25 22.91 10.55Q22.25 11.84 21.81 12.82L21.81 12.82Q21.34 14 21.34 15.22L21.34 15.22Q21.34 15.86 21.45 16.18Q21.56 16.51 21.56 16.55ZM25.62 2.70L25.62 2.70L27.64 2.81Q28.98 2.81 29.57 2.49L29.57 2.49Q29.65 2.44 29.71 2.44Q29.78 2.44 29.78 2.63Q29.78 2.83 29.54 3.28L29.54 3.28Q29.19 3.96 28.53 3.96L28.53 3.96L27.76 3.95Q27.65 3.95 27.62 4.07L27.62 4.07Q27.52 6.13 27.52 8.52Q27.52 10.91 27.72 12.11L27.72 12.11L27.72 12.18Q27.72 12.53 27.05 12.74Q26.39 12.95 25.80 12.95L25.80 12.95Q25.52 12.95 25.52 12.80L25.52 12.80Q25.52 12.75 25.56 12.60L25.56 12.60Q25.72 12.29 25.84 9.62Q25.96 6.94 25.96 5.59L25.96 5.59L25.93 4.06Q25.93 3.98 25.84 3.96L25.84 3.96Q25.55 3.91 25.17 3.91L25.17 3.91Q24.42 3.91 24.05 4.21L24.05 4.21Q23.95 4.28 23.86 4.28Q23.77 4.28 23.77 4.17L23.77 4.17Q23.77 4.00 23.95 3.71Q24.12 3.42 24.32 3.21L24.32 3.21Q24.79 2.70 25.62 2.70ZM33.81 8.47L33.81 8.47L33.78 10.26Q33.78 12.12 34.19 12.50L34.19 12.50Q34.24 12.56 34.24 12.63L34.24 12.63Q34.24 12.84 33.34 12.84Q32.44 12.84 32.38 12.31L32.38 12.31Q32.37 12.18 32.37 11.79L32.37 11.79L32.42 9.55Q32.42 9.45 32.31 9.45L32.31 9.45Q31.64 9.45 31.05 9.83Q30.46 10.21 30.46 10.79L30.46 10.79Q30.46 11.10 30.63 11.31Q30.80 11.52 31.04 11.52Q31.29 11.52 31.45 11.42Q31.61 11.33 31.64 11.31L31.64 11.31Q31.88 11.34 31.88 11.81Q31.88 12.28 31.44 12.56Q31.01 12.85 30.53 12.85Q30.06 12.85 29.71 12.68Q29.37 12.52 29.22 12.31Q29.06 12.10 28.97 11.83L28.97 11.83Q28.87 11.51 28.87 11.27L28.87 11.27Q28.87 10.29 29.48 9.70Q30.10 9.11 31.07 8.86L31.07 8.86Q32.34 8.61 32.40 8.40L32.40 8.40Q32.44 8.25 32.44 7.88L32.44 7.88Q32.44 7.14 31.68 7.14L31.68 7.14Q31.36 7.14 31.11 7.34Q30.86 7.55 30.86 7.85L30.86 7.85L30.94 8.19Q30.91 8.43 30.44 8.47L30.44 8.47L30.28 8.48Q29.86 8.48 29.62 8.27Q29.37 8.06 29.37 7.71L29.37 7.71Q29.37 7.49 29.52 7.22Q29.67 6.94 29.89 6.78Q30.11 6.61 30.58 6.47Q31.05 6.34 31.49 6.34Q31.92 6.34 32.16 6.37Q32.40 6.40 32.81 6.50Q33.22 6.61 33.49 6.90Q33.77 7.20 33.79 7.52Q33.81 7.85 33.81 8.47ZM36.41 4.66L36.41 4.66L36.33 9.80Q36.33 12.21 36.48 12.68L36.48 12.68Q36.53 12.77 36.53 12.85L36.53 12.85Q36.53 13.02 36.12 13.02Q35.71 13.02 35.22 12.82Q34.72 12.61 34.72 12.29L34.72 12.29Q35.00 10.33 35.00 7.06L35.00 7.06L34.94 4.91Q34.92 4.52 34.78 4.24Q34.65 3.96 34.52 3.88L34.52 3.88L34.41 3.81Q34.31 3.75 34.31 3.68L34.31 3.68Q34.31 3.49 34.92 3.20Q35.53 2.91 36.11 2.91L36.11 2.91Q36.33 2.91 36.36 3.07L36.36 3.07Q36.41 3.43 36.41 4.66ZM38.81 5.18L38.81 5.18L38.47 5.17Q38.09 5.17 37.98 5.35L37.98 5.35Q37.95 5.39 37.91 5.39L37.91 5.39Q37.73 5.39 37.73 4.77Q37.73 4.14 37.92 3.98Q38.11 3.81 38.58 3.81Q39.05 3.81 39.21 3.97Q39.38 4.13 39.38 4.51Q39.38 4.89 39.26 5.03Q39.13 5.18 38.81 5.18ZM37.69 12.25L37.69 12.25L37.84 8.99Q37.84 7.83 37.58 7.41L37.58 7.41Q37.49 7.27 37.38 7.20L37.38 7.20Q37.30 7.17 37.30 7.08L37.30 7.08Q37.30 6.83 38.01 6.59Q38.72 6.36 39.05 6.36Q39.38 6.36 39.40 6.52L39.40 6.52Q39.40 6.80 39.32 8.11Q39.24 9.42 39.24 10.86Q39.24 12.31 39.41 12.66L39.41 12.66Q39.45 12.73 39.45 12.80L39.45 12.80Q39.45 12.98 38.92 12.98Q38.39 12.98 37.83 12.70L37.83 12.70Q37.69 12.63 37.69 12.25ZM43.47 12.75L43.47 12.75Q43.67 11.77 43.67 10.00Q43.67 8.23 43.65 7.91Q43.64 7.59 43.46 7.39Q43.27 7.20 43.14 7.17Q43.01 7.14 42.77 7.14Q42.53 7.14 42.31 7.36Q42.08 7.57 42.04 7.80L42.04 7.80L41.99 8.02Q41.94 8.44 41.94 9.88Q41.94 11.33 42.01 11.70Q42.07 12.07 42.07 12.19Q42.07 12.32 41.96 12.45L41.96 12.45Q41.48 12.95 40.61 12.95L40.61 12.95Q40.31 12.95 40.31 12.77L40.31 12.77Q40.59 11.09 40.59 8.48L40.59 8.48Q40.59 7.52 40.54 7.18L40.54 7.18L40.49 6.73Q40.47 6.58 40.43 6.40L40.43 6.40Q40.43 6.23 40.87 6.23L40.87 6.23Q41.51 6.23 41.72 6.71L41.72 6.71Q41.73 6.76 41.78 6.76Q41.82 6.76 41.97 6.65L41.97 6.65Q42.43 6.29 43.22 6.29L43.22 6.29Q43.67 6.29 44.10 6.45Q44.53 6.62 44.70 6.90L44.70 6.90Q44.72 6.93 44.74 6.93Q44.77 6.93 44.83 6.87L44.83 6.87Q45.42 6.29 46.35 6.29L46.35 6.29Q47.60 6.29 48.06 7.18L48.06 7.18Q48.23 7.53 48.23 8.06Q48.23 8.60 48.15 9.58Q48.06 10.56 48.06 11.07Q48.06 11.59 48.17 12.01Q48.27 12.43 48.38 12.61Q48.48 12.80 48.48 12.82L48.48 12.82Q48.48 13.01 48.09 13.01L48.09 13.01Q47.12 13.01 46.75 12.61Q46.37 12.22 46.37 11.59Q46.37 10.95 46.63 9.86Q46.89 8.78 46.89 8.23L46.89 8.23Q46.89 7.13 45.99 7.13L45.99 7.13Q45.61 7.13 45.39 7.35Q45.16 7.57 45.12 7.80L45.12 7.80L45.09 8.02Q45.04 8.67 45.04 9.58Q45.04 10.49 45.07 11.00Q45.09 11.51 45.12 11.79Q45.15 12.08 45.15 12.14L45.15 12.14Q45.15 12.53 44.66 12.74Q44.17 12.95 43.71 12.95L43.71 12.95Q43.47 12.95 43.47 12.75Z"></path></g><!----><!----></svg>