<svg data-v-423bf9ae="" xmlns="http://www.w3.org/2000/svg" viewBox="0 0 517 90" class="iconLeft"><!----><!----><!----><g data-v-423bf9ae="" id="e97e58b6-d21b-4115-bb1e-1330e0b04a1b" fill="#000000" transform="matrix(4.344677937748613,0,0,4.344677937748613,116.92878467144962,1.9659671404284822)"><path d="M0.91 13.78L3.50 13.78C6.03 13.78 7.78 12.28 7.78 9.11C7.78 5.95 6.03 4.54 3.39 4.54L0.91 4.54ZM2.98 12.11L2.98 6.20L3.28 6.20C4.70 6.20 5.67 6.90 5.67 9.11C5.67 11.33 4.70 12.11 3.28 12.11ZM11.54 13.94C12.43 13.94 13.30 13.51 14 12.96L14.06 12.96L14.21 13.78L15.89 13.78L15.89 9.66C15.89 7.50 14.70 6.45 12.75 6.45C11.56 6.45 10.46 6.87 9.79 7.43L10.51 8.78C11.02 8.37 11.68 8.11 12.35 8.11C13.29 8.11 13.76 8.51 13.83 9.18C10.54 9.39 9.25 10.21 9.25 11.80C9.25 13.01 10.14 13.94 11.54 13.94ZM12.19 12.35C11.61 12.35 11.23 12.12 11.23 11.65C11.23 11.00 11.79 10.54 13.83 10.42L13.83 11.65C13.34 12.05 12.81 12.35 12.19 12.35ZM20.97 5.80C21.78 5.80 22.37 5.26 22.37 4.42C22.37 3.58 21.78 3.00 20.97 3.00C20.16 3.00 19.57 3.58 19.57 4.42C19.57 5.26 20.16 5.80 20.97 5.80ZM17.65 13.78L24.47 13.78L24.47 12.11L22.09 12.11L22.09 6.64L17.65 6.64L17.65 8.25L20.03 8.25L20.03 12.11L17.65 12.11ZM30.73 13.94C31.60 13.94 32.09 13.79 32.82 13.55L32.35 12.04C31.92 12.22 31.58 12.28 31.26 12.28C30.69 12.28 30.14 11.98 30.14 11.10L30.14 3.65L26.07 3.65L26.07 5.28L28.08 5.28L28.08 11.00C28.08 12.81 28.98 13.94 30.73 13.94ZM35.60 16.81C37.35 16.81 38.18 15.89 38.84 14.11L41.59 6.64L39.65 6.64L38.63 9.76C38.40 10.46 38.18 11.20 38.00 11.90L37.94 11.90C37.72 11.16 37.49 10.43 37.24 9.76L36.08 6.64L34.03 6.64L37.04 13.61L36.82 14.18C36.68 14.53 36.25 15.19 35.45 15.19C35.27 15.19 35.08 15.16 34.90 15.11L34.54 16.67C34.83 16.76 35.20 16.81 35.60 16.81ZM53.56 13.78L55.64 13.78L55.64 6.27L58.37 6.27L58.37 4.54L50.83 4.54L50.83 6.27L53.56 6.27ZM61.94 13.94C62.83 13.94 63.70 13.51 64.40 12.96L64.46 12.96L64.61 13.78L66.29 13.78L66.29 9.66C66.29 7.50 65.10 6.45 63.15 6.45C61.96 6.45 60.86 6.87 60.19 7.43L60.91 8.78C61.42 8.37 62.08 8.11 62.75 8.11C63.69 8.11 64.16 8.51 64.23 9.18C60.94 9.39 59.65 10.21 59.65 11.80C59.65 13.01 60.54 13.94 61.94 13.94ZM62.59 12.35C62.01 12.35 61.63 12.12 61.63 11.65C61.63 11.00 62.19 10.54 64.23 10.42L64.23 11.65C63.74 12.05 63.21 12.35 62.59 12.35ZM72.73 13.94C73.60 13.94 74.09 13.79 74.82 13.55L74.35 12.04C73.92 12.22 73.58 12.28 73.26 12.28C72.69 12.28 72.14 11.98 72.14 11.10L72.14 3.65L68.07 3.65L68.07 5.28L70.08 5.28L70.08 11.00C70.08 12.81 70.98 13.94 72.73 13.94ZM79.77 5.80C80.58 5.80 81.17 5.26 81.17 4.42C81.17 3.58 80.58 3.00 79.77 3.00C78.96 3.00 78.37 3.58 78.37 4.42C78.37 5.26 78.96 5.80 79.77 5.80ZM76.45 13.78L83.27 13.78L83.27 12.11L80.89 12.11L80.89 6.64L76.45 6.64L76.45 8.25L78.83 8.25L78.83 12.11L76.45 12.11ZM84.50 13.78L86.44 13.78L86.44 8.93C86.63 8.46 86.80 8.20 87.07 8.20C87.33 8.20 87.47 8.44 87.47 8.92L87.47 13.78L89.05 13.78L89.05 8.93C89.24 8.46 89.43 8.20 89.70 8.20C89.98 8.20 90.09 8.44 90.09 8.92L90.09 13.78L92.02 13.78L92.02 8.76C92.02 7.34 91.45 6.45 90.48 6.45C89.70 6.45 89.21 6.97 88.96 7.63C88.79 6.86 88.35 6.45 87.74 6.45C86.94 6.45 86.52 6.93 86.25 7.53L86.20 7.53L86.04 6.64L84.50 6.64Z"></path></g><defs data-v-423bf9ae=""><linearGradient data-v-423bf9ae="" gradientTransform="rotate(25)" id="8a0aa008-8ba4-4ed4-9422-c05809e6549e" x1="0%" y1="0%" x2="100%" y2="0%"><stop data-v-423bf9ae="" offset="0%" style="stop-color: rgb(0, 10, 104); stop-opacity: 1;"></stop><stop data-v-423bf9ae="" offset="100%" style="stop-color: rgb(0, 196, 238); stop-opacity: 1;"></stop></linearGradient></defs><g data-v-423bf9ae="" id="b063f823-a61a-44b7-9eda-7c12a2b5540d" transform="matrix(1.198242446102869,0,0,1.198242446102869,-9.10387403867363,-15.578143034254857)" stroke="none" fill="url(#8a0aa008-8ba4-4ed4-9422-c05809e6549e)"><path d="M49.569 22.967c-9.975-5.691-20.677-9.125-31.045-9.962v58.351c10.367.814 21.05 4.154 31.045 9.699V22.967z"></path><path d="M49.229 84.073c.814.278 1.671.29 2.485.012 11.657-5.043 23.865-7.313 35.798-6.79V19.524a67.09 67.09 0 00-3.24-.055v53.594l-.852.056c-10.672.697-21.732 4.177-32.021 10.048a2.826 2.826 0 01-1.83 0c-10.29-5.871-21.349-9.351-32.021-10.048l-.854-.056V19.469a65.788 65.788 0 00-3.239.055v57.771c11.932-.524 24.114 1.735 35.774 6.778z"></path><path d="M92.579 26.009c-1.07-.149-2.157-.228-3.237-.335v53.55l-.968-.056c-12.195-.699-25.06 1.777-36.975 7.065l-.916.381-.915-.381c-11.917-5.288-24.781-7.765-36.976-7.065l-.967.056v-53.55c-1.081.108-2.168.187-3.238.335v58.707a4.876 4.876 0 011.044.748c12.951-1.75 26.393-1.536 39.18 2.651a19.022 19.022 0 011.873-.095c.661 0 1.285.037 1.872.095 12.785-4.188 26.229-4.401 39.179-2.651 0 0 .474-.462 1.044-.748V26.009z"></path><path d="M65.283 16.667v20.625l-3.98-4.738-4.195 4.738V19.994a83.542 83.542 0 00-5.708 2.974v58.087c9.993-5.545 20.679-8.885 31.045-9.699V13.005c-5.679.459-11.458 1.701-17.162 3.662z"></path></g><!----></svg>